<svg width="24" height="24" viewBox="0 0 48 48" fill="none" xmlns="http://www.w3.org/2000/svg">
<path fill-rule="evenodd" clip-rule="evenodd" d="M10.46 12.16C11.7 8.48 15.12 6 19 6C21.06 6 23 6.7 24.64 8H28C32.42 8 36 11.58 36 16V20H40C41.1 20 42 20.9 42 22V29.1313C40.7986 28.4839 39.4418 28.0877 38 28.0129V24H34V28.6655C30.4854 30.0591 28 33.4893 28 37.5C28 40.0144 28.9769 42.3007 30.5718 44H12V28C7.58 28 4 24.42 4 20C4 16.18 6.72 12.88 10.46 12.16ZM23 12C22.06 10.74 20.58 10 19 10C16.24 10 14 12.24 14 15V16H12C9.78 16 8 17.8 8 20C8 22.22 9.78 24 12 24C12 24 15.36 24.26 17 21.26C18.64 18.26 20 16 24 16H32C32 13.8 30.22 12 28 12H23Z" fill="black"/>
<path d="M39 31H36V36H31V39H36V44H39V39H44V36H39V31Z" fill="black"/>
</svg>
