<svg width="24" height="24" viewBox="0 0 24 24" fill="none" xmlns="http://www.w3.org/2000/svg">
<path fill-rule="evenodd" clip-rule="evenodd" d="M12 2C8.14 2 5 5.14 5 9C5 14.25 12 22 12 22C12 22 19 14.25 19 9C19 5.14 15.86 2 12 2ZM8.7 5.62105C9.02632 4.65263 9.92632 4 10.9474 4C11.4895 4 12 4.18421 12.4316 4.52632H13.3158C14.4789 4.52632 15.4211 5.46842 15.4211 6.63158V7.68421H16.4737C16.7632 7.68421 17 7.92105 17 8.21053V12.4211C17 12.7105 16.7632 12.9474 16.4737 12.9474H14.8947V14H9.10526V9.78947C7.94211 9.78947 7 8.84737 7 7.68421C7 6.67895 7.71579 5.81053 8.7 5.62105ZM12 5.57895C11.7526 5.24737 11.3632 5.05263 10.9474 5.05263C10.2211 5.05263 9.63158 5.64211 9.63158 6.36842V6.63158H9.10526C8.52105 6.63158 8.05263 7.10526 8.05263 7.68421C8.05263 8.26842 8.52105 8.73684 9.10526 8.73684C9.10526 8.73684 9.98947 8.80526 10.4211 8.01579C10.8526 7.22632 11.2105 6.63158 12.2632 6.63158H14.3684C14.3684 6.05263 13.9 5.57895 13.3158 5.57895H12ZM15.9474 11.8947V8.73684H14.8947V11.8947H15.9474Z" fill="black"/>
</svg>
