<svg width="432" height="432" viewBox="0 0 432 432" fill="none" xmlns="http://www.w3.org/2000/svg">
<g clip-path="url(#clip0)">
<g filter="url(#filter0_dd)">
<mask id="mask0" mask-type="alpha" maskUnits="userSpaceOnUse" x="70" y="14" width="292" height="418">
<path fill-rule="evenodd" clip-rule="evenodd" d="M70 160.3C70 79.626 135.491 14 216 14C296.509 14 362 79.626 362 160.3C362 270.025 216 432 216 432C216 432 70 270.025 70 160.3Z" fill="black"/>
</mask>
<g mask="url(#mask0)">
<rect width="432" height="432" fill="url(#paint0_radial)"/>
<g clip-path="url(#clip1)">
<g clip-path="url(#clip2)">
<rect y="-51" width="432" height="432" fill="url(#paint1_radial)"/>
</g>
<g clip-path="url(#clip3)">
<g filter="url(#filter1_dd)">
<g filter="url(#filter2_ii)">
<path fill-rule="evenodd" clip-rule="evenodd" d="M150 97.4211C156.526 78.0526 174.526 65 194.947 65C205.789 65 216 68.6842 224.632 75.5263H242.316C265.579 75.5263 284.421 94.3684 284.421 117.632V138.684H305.474C311.263 138.684 316 143.421 316 149.211V233.421C316 239.211 311.263 243.947 305.474 243.947H273.895V265H158.105V180.789C134.842 180.789 116 161.947 116 138.684C116 118.579 130.316 101.211 150 97.4211ZM216 96.579C211.053 89.9474 203.263 86.0526 194.947 86.0526C180.421 86.0526 168.632 97.8421 168.632 112.368V117.632H158.105C146.421 117.632 137.053 127.105 137.053 138.684C137.053 150.368 146.421 159.737 158.105 159.737C158.105 159.737 175.789 161.105 184.421 145.316C193.053 129.526 200.211 117.632 221.263 117.632H263.368C263.368 106.053 254 96.579 242.316 96.579H216ZM294.947 159.737H273.895V222.895H294.947V159.737ZM252.842 138.684V243.947H179.158V175.161C180.815 174.201 182.58 172.865 184.421 171.269C188.531 167.705 192.262 162.841 196.008 157.96C203.374 148.358 210.796 138.684 221.263 138.684H252.842Z" fill="#FFF176"/>
<path d="M194.947 86.0526C203.263 86.0526 211.053 89.9474 216 96.579H242.316C254 96.579 263.368 106.053 263.368 117.632H221.263C200.211 117.632 193.053 129.526 184.421 145.316C175.789 161.105 158.105 159.737 158.105 159.737C146.421 159.737 137.053 150.368 137.053 138.684C137.053 127.105 146.421 117.632 158.105 117.632H168.632V112.368C168.632 97.8421 180.421 86.0526 194.947 86.0526Z" fill="#FFF176"/>
<path d="M252.842 243.947V138.684H221.263C210.796 138.684 203.374 148.358 196.008 157.96C192.262 162.841 188.531 167.705 184.421 171.269C182.58 172.865 180.815 174.201 179.158 175.161V243.947H252.842Z" fill="#FFF176"/>
</g>
<g filter="url(#filter3_d)">
<path d="M252.842 243.947V138.684H221.263C210.796 138.684 203.374 148.358 196.008 157.96C192.262 162.841 188.531 167.705 184.421 171.269C182.58 172.865 180.815 174.201 179.158 175.161V243.947H252.842Z" fill="#FDD835"/>
</g>
<g filter="url(#filter4_d)">
<path d="M194.947 86.0526C203.263 86.0526 211.053 89.9474 216 96.579H242.316C254 96.579 263.368 106.053 263.368 117.632H221.263C200.211 117.632 193.053 129.526 184.421 145.316C175.789 161.105 158.105 159.737 158.105 159.737C146.421 159.737 137.053 150.368 137.053 138.684C137.053 127.105 146.421 117.632 158.105 117.632H168.632V112.368C168.632 97.8421 180.421 86.0526 194.947 86.0526Z" fill="#FAFAFA"/>
</g>
</g>
<rect y="-51" width="432" height="432" fill="url(#paint2_radial)"/>
</g>
</g>
</g>
</g>
</g>
<defs>
<filter id="filter0_dd" x="66" y="10" width="300" height="430" filterUnits="userSpaceOnUse" color-interpolation-filters="sRGB">
<feFlood flood-opacity="0" result="BackgroundImageFix"/>
<feColorMatrix in="SourceAlpha" type="matrix" values="0 0 0 0 0 0 0 0 0 0 0 0 0 0 0 0 0 0 127 0"/>
<feOffset dy="4"/>
<feGaussianBlur stdDeviation="2"/>
<feColorMatrix type="matrix" values="0 0 0 0 0.129412 0 0 0 0 0.129412 0 0 0 0 0.129412 0 0 0 0.2 0"/>
<feBlend mode="normal" in2="BackgroundImageFix" result="effect1_dropShadow"/>
<feColorMatrix in="SourceAlpha" type="matrix" values="0 0 0 0 0 0 0 0 0 0 0 0 0 0 0 0 0 0 127 0"/>
<feOffset/>
<feGaussianBlur stdDeviation="2"/>
<feColorMatrix type="matrix" values="0 0 0 0 0.129412 0 0 0 0 0.129412 0 0 0 0 0.129412 0 0 0 0.2 0"/>
<feBlend mode="normal" in2="effect1_dropShadow" result="effect2_dropShadow"/>
<feBlend mode="normal" in="SourceGraphic" in2="effect2_dropShadow" result="shape"/>
</filter>
<filter id="filter1_dd" x="112" y="65" width="208" height="208" filterUnits="userSpaceOnUse" color-interpolation-filters="sRGB">
<feFlood flood-opacity="0" result="BackgroundImageFix"/>
<feColorMatrix in="SourceAlpha" type="matrix" values="0 0 0 0 0 0 0 0 0 0 0 0 0 0 0 0 0 0 127 0"/>
<feOffset dy="4"/>
<feGaussianBlur stdDeviation="2"/>
<feColorMatrix type="matrix" values="0 0 0 0 0 0 0 0 0 0 0 0 0 0 0 0 0 0 0.25 0"/>
<feBlend mode="normal" in2="BackgroundImageFix" result="effect1_dropShadow"/>
<feColorMatrix in="SourceAlpha" type="matrix" values="0 0 0 0 0 0 0 0 0 0 0 0 0 0 0 0 0 0 127 0"/>
<feOffset dx="2" dy="2"/>
<feGaussianBlur stdDeviation="1"/>
<feColorMatrix type="matrix" values="0 0 0 0 0 0 0 0 0 0 0 0 0 0 0 0 0 0 0.25 0"/>
<feBlend mode="normal" in2="effect1_dropShadow" result="effect2_dropShadow"/>
<feBlend mode="normal" in="SourceGraphic" in2="effect2_dropShadow" result="shape"/>
</filter>
<filter id="filter2_ii" x="116" y="65" width="200" height="200" filterUnits="userSpaceOnUse" color-interpolation-filters="sRGB">
<feFlood flood-opacity="0" result="BackgroundImageFix"/>
<feBlend mode="normal" in="SourceGraphic" in2="BackgroundImageFix" result="shape"/>
<feColorMatrix in="SourceAlpha" type="matrix" values="0 0 0 0 0 0 0 0 0 0 0 0 0 0 0 0 0 0 127 0" result="hardAlpha"/>
<feOffset dy="0.25"/>
<feComposite in2="hardAlpha" operator="arithmetic" k2="-1" k3="1"/>
<feColorMatrix type="matrix" values="0 0 0 0 1 0 0 0 0 1 0 0 0 0 1 0 0 0 0.25 0"/>
<feBlend mode="normal" in2="shape" result="effect1_innerShadow"/>
<feColorMatrix in="SourceAlpha" type="matrix" values="0 0 0 0 0 0 0 0 0 0 0 0 0 0 0 0 0 0 127 0" result="hardAlpha"/>
<feOffset dy="-0.25"/>
<feComposite in2="hardAlpha" operator="arithmetic" k2="-1" k3="1"/>
<feColorMatrix type="matrix" values="0 0 0 0 0 0 0 0 0 0 0 0 0 0 0 0 0 0 0.25 0"/>
<feBlend mode="normal" in2="effect1_innerShadow" result="effect2_innerShadow"/>
</filter>
<filter id="filter3_d" x="112" y="61" width="208" height="208" filterUnits="userSpaceOnUse" color-interpolation-filters="sRGB">
<feFlood flood-opacity="0" result="BackgroundImageFix"/>
<feColorMatrix in="SourceAlpha" type="matrix" values="0 0 0 0 0 0 0 0 0 0 0 0 0 0 0 0 0 0 127 0"/>
<feOffset/>
<feGaussianBlur stdDeviation="2"/>
<feColorMatrix type="matrix" values="0 0 0 0 0.960784 0 0 0 0 0.498039 0 0 0 0 0.0901961 0 0 0 0.25 0"/>
<feBlend mode="normal" in2="BackgroundImageFix" result="effect1_dropShadow"/>
<feBlend mode="normal" in="SourceGraphic" in2="effect1_dropShadow" result="shape"/>
</filter>
<filter id="filter4_d" x="112" y="61" width="208" height="208" filterUnits="userSpaceOnUse" color-interpolation-filters="sRGB">
<feFlood flood-opacity="0" result="BackgroundImageFix"/>
<feColorMatrix in="SourceAlpha" type="matrix" values="0 0 0 0 0 0 0 0 0 0 0 0 0 0 0 0 0 0 127 0"/>
<feOffset/>
<feGaussianBlur stdDeviation="2"/>
<feColorMatrix type="matrix" values="0 0 0 0 0.960784 0 0 0 0 0.498039 0 0 0 0 0.0901961 0 0 0 0.25 0"/>
<feBlend mode="normal" in2="BackgroundImageFix" result="effect1_dropShadow"/>
<feBlend mode="normal" in="SourceGraphic" in2="effect1_dropShadow" result="shape"/>
</filter>
<radialGradient id="paint0_radial" cx="0" cy="0" r="1" gradientUnits="userSpaceOnUse" gradientTransform="translate(432 432) rotate(-135) scale(610.94)">
<stop stop-color="#212121"/>
<stop offset="1" stop-color="#424242"/>
</radialGradient>
<radialGradient id="paint1_radial" cx="0" cy="0" r="1" gradientUnits="userSpaceOnUse" gradientTransform="translate(432 381) rotate(-135) scale(610.94)">
<stop stop-color="#212121"/>
<stop offset="1" stop-color="#424242"/>
</radialGradient>
<radialGradient id="paint2_radial" cx="0" cy="0" r="1" gradientUnits="userSpaceOnUse" gradientTransform="translate(0 -51) rotate(45) scale(610.94)">
<stop offset="0.141204" stop-color="white" stop-opacity="0.3"/>
<stop offset="0.711917" stop-color="white" stop-opacity="0"/>
</radialGradient>
<clipPath id="clip0">
<rect width="432" height="432" fill="white"/>
</clipPath>
<clipPath id="clip1">
<rect width="432" height="432" fill="white" transform="translate(0 -51)"/>
</clipPath>
<clipPath id="clip2">
<rect width="432" height="432" fill="white" transform="translate(0 -51)"/>
</clipPath>
<clipPath id="clip3">
<rect width="432" height="432" fill="white" transform="translate(0 -51)"/>
</clipPath>
</defs>
</svg>
